<mxfile host="app.diagrams.net" modified="2024-05-28T04:16:27.859Z" agent="Mozilla/5.0 (Macintosh; Intel Mac OS X 10_15_7) AppleWebKit/537.36 (KHTML, like Gecko) Chrome/124.0.0.0 Safari/537.36" etag="M6iU_tCop-LJNSjgRXc8" version="24.4.2" type="github">
  <diagram id="C5RBs43oDa-KdzZeNtuy" name="Page-1">
    <mxGraphModel dx="1360" dy="758" grid="0" gridSize="10" guides="1" tooltips="1" connect="1" arrows="1" fold="1" page="1" pageScale="1" pageWidth="827" pageHeight="1169" math="0" shadow="0">
      <root>
        <mxCell id="WIyWlLk6GJQsqaUBKTNV-0" />
        <mxCell id="WIyWlLk6GJQsqaUBKTNV-1" parent="WIyWlLk6GJQsqaUBKTNV-0" />
        <mxCell id="BrGtxLfJYtqCHc87NHvl-64" value="" style="rounded=1;whiteSpace=wrap;html=1;dashed=1;" vertex="1" parent="WIyWlLk6GJQsqaUBKTNV-1">
          <mxGeometry x="339" y="57" width="436" height="489" as="geometry" />
        </mxCell>
        <mxCell id="BrGtxLfJYtqCHc87NHvl-62" value="" style="rounded=1;whiteSpace=wrap;html=1;dashed=1;" vertex="1" parent="WIyWlLk6GJQsqaUBKTNV-1">
          <mxGeometry x="86" y="57" width="227" height="489" as="geometry" />
        </mxCell>
        <mxCell id="BrGtxLfJYtqCHc87NHvl-60" value="" style="rounded=1;whiteSpace=wrap;html=1;dashed=1;" vertex="1" parent="WIyWlLk6GJQsqaUBKTNV-1">
          <mxGeometry x="389" y="636" width="239" height="501" as="geometry" />
        </mxCell>
        <mxCell id="BrGtxLfJYtqCHc87NHvl-58" value="" style="rounded=1;whiteSpace=wrap;html=1;dashed=1;" vertex="1" parent="WIyWlLk6GJQsqaUBKTNV-1">
          <mxGeometry x="97" y="636" width="239" height="501" as="geometry" />
        </mxCell>
        <mxCell id="BrGtxLfJYtqCHc87NHvl-1" style="edgeStyle=orthogonalEdgeStyle;rounded=0;orthogonalLoop=1;jettySize=auto;html=1;entryX=0.5;entryY=0;entryDx=0;entryDy=0;" edge="1" parent="WIyWlLk6GJQsqaUBKTNV-1" source="WIyWlLk6GJQsqaUBKTNV-3" target="BrGtxLfJYtqCHc87NHvl-0">
          <mxGeometry relative="1" as="geometry" />
        </mxCell>
        <mxCell id="WIyWlLk6GJQsqaUBKTNV-3" value="Index 数据" style="rounded=1;whiteSpace=wrap;html=1;fontSize=12;glass=0;strokeWidth=1;shadow=0;" parent="WIyWlLk6GJQsqaUBKTNV-1" vertex="1">
          <mxGeometry x="146" y="110" width="120" height="40" as="geometry" />
        </mxCell>
        <mxCell id="BrGtxLfJYtqCHc87NHvl-5" value="" style="edgeStyle=orthogonalEdgeStyle;rounded=0;orthogonalLoop=1;jettySize=auto;html=1;" edge="1" parent="WIyWlLk6GJQsqaUBKTNV-1" source="BrGtxLfJYtqCHc87NHvl-0" target="BrGtxLfJYtqCHc87NHvl-4">
          <mxGeometry relative="1" as="geometry" />
        </mxCell>
        <mxCell id="BrGtxLfJYtqCHc87NHvl-9" value="refresh" style="edgeLabel;html=1;align=center;verticalAlign=middle;resizable=0;points=[];" vertex="1" connectable="0" parent="BrGtxLfJYtqCHc87NHvl-5">
          <mxGeometry x="-0.2692" relative="1" as="geometry">
            <mxPoint as="offset" />
          </mxGeometry>
        </mxCell>
        <mxCell id="BrGtxLfJYtqCHc87NHvl-0" value="数据解析 buffer（内存缓冲区）" style="rounded=1;whiteSpace=wrap;html=1;fontSize=12;glass=0;strokeWidth=1;shadow=0;" vertex="1" parent="WIyWlLk6GJQsqaUBKTNV-1">
          <mxGeometry x="146" y="202" width="120" height="40" as="geometry" />
        </mxCell>
        <mxCell id="BrGtxLfJYtqCHc87NHvl-7" value="" style="edgeStyle=orthogonalEdgeStyle;rounded=0;orthogonalLoop=1;jettySize=auto;html=1;" edge="1" parent="WIyWlLk6GJQsqaUBKTNV-1" source="BrGtxLfJYtqCHc87NHvl-4" target="BrGtxLfJYtqCHc87NHvl-6">
          <mxGeometry relative="1" as="geometry" />
        </mxCell>
        <mxCell id="BrGtxLfJYtqCHc87NHvl-10" value="flush" style="edgeLabel;html=1;align=center;verticalAlign=middle;resizable=0;points=[];" vertex="1" connectable="0" parent="BrGtxLfJYtqCHc87NHvl-7">
          <mxGeometry x="-0.1538" y="3" relative="1" as="geometry">
            <mxPoint as="offset" />
          </mxGeometry>
        </mxCell>
        <mxCell id="BrGtxLfJYtqCHc87NHvl-4" value="segments（文件系统缓存）" style="rounded=1;whiteSpace=wrap;html=1;fontSize=12;glass=0;strokeWidth=1;shadow=0;fillColor=#d5e8d4;strokeColor=#82b366;" vertex="1" parent="WIyWlLk6GJQsqaUBKTNV-1">
          <mxGeometry x="146" y="294" width="120" height="40" as="geometry" />
        </mxCell>
        <mxCell id="BrGtxLfJYtqCHc87NHvl-54" value="" style="edgeStyle=orthogonalEdgeStyle;rounded=0;orthogonalLoop=1;jettySize=auto;html=1;" edge="1" parent="WIyWlLk6GJQsqaUBKTNV-1" source="BrGtxLfJYtqCHc87NHvl-6" target="BrGtxLfJYtqCHc87NHvl-53">
          <mxGeometry relative="1" as="geometry" />
        </mxCell>
        <mxCell id="BrGtxLfJYtqCHc87NHvl-6" value="segments（磁盘）" style="rounded=1;whiteSpace=wrap;html=1;fontSize=12;glass=0;strokeWidth=1;shadow=0;" vertex="1" parent="WIyWlLk6GJQsqaUBKTNV-1">
          <mxGeometry x="146" y="386" width="120" height="40" as="geometry" />
        </mxCell>
        <mxCell id="BrGtxLfJYtqCHc87NHvl-11" value="" style="endArrow=none;dashed=1;html=1;dashPattern=1 3;strokeWidth=2;rounded=0;" edge="1" parent="WIyWlLk6GJQsqaUBKTNV-1">
          <mxGeometry width="50" height="50" relative="1" as="geometry">
            <mxPoint x="280" y="270" as="sourcePoint" />
            <mxPoint x="370" y="154" as="targetPoint" />
          </mxGeometry>
        </mxCell>
        <mxCell id="BrGtxLfJYtqCHc87NHvl-12" value="" style="endArrow=none;dashed=1;html=1;dashPattern=1 3;strokeWidth=2;rounded=0;" edge="1" parent="WIyWlLk6GJQsqaUBKTNV-1">
          <mxGeometry width="50" height="50" relative="1" as="geometry">
            <mxPoint x="283" y="362" as="sourcePoint" />
            <mxPoint x="371" y="491" as="targetPoint" />
          </mxGeometry>
        </mxCell>
        <mxCell id="BrGtxLfJYtqCHc87NHvl-16" value="" style="edgeStyle=orthogonalEdgeStyle;rounded=0;orthogonalLoop=1;jettySize=auto;html=1;" edge="1" parent="WIyWlLk6GJQsqaUBKTNV-1" source="BrGtxLfJYtqCHc87NHvl-13" target="BrGtxLfJYtqCHc87NHvl-14">
          <mxGeometry relative="1" as="geometry" />
        </mxCell>
        <mxCell id="BrGtxLfJYtqCHc87NHvl-13" value="doFlush" style="rounded=1;whiteSpace=wrap;html=1;fontSize=12;glass=0;strokeWidth=1;shadow=0;" vertex="1" parent="WIyWlLk6GJQsqaUBKTNV-1">
          <mxGeometry x="389" y="107" width="120" height="40" as="geometry" />
        </mxCell>
        <mxCell id="BrGtxLfJYtqCHc87NHvl-17" value="" style="edgeStyle=orthogonalEdgeStyle;rounded=0;orthogonalLoop=1;jettySize=auto;html=1;" edge="1" parent="WIyWlLk6GJQsqaUBKTNV-1" source="BrGtxLfJYtqCHc87NHvl-14" target="BrGtxLfJYtqCHc87NHvl-15">
          <mxGeometry relative="1" as="geometry" />
        </mxCell>
        <mxCell id="BrGtxLfJYtqCHc87NHvl-14" value="..." style="rounded=1;whiteSpace=wrap;html=1;fontSize=12;glass=0;strokeWidth=1;shadow=0;" vertex="1" parent="WIyWlLk6GJQsqaUBKTNV-1">
          <mxGeometry x="389" y="199" width="120" height="40" as="geometry" />
        </mxCell>
        <mxCell id="BrGtxLfJYtqCHc87NHvl-20" value="" style="edgeStyle=orthogonalEdgeStyle;rounded=0;orthogonalLoop=1;jettySize=auto;html=1;" edge="1" parent="WIyWlLk6GJQsqaUBKTNV-1" source="BrGtxLfJYtqCHc87NHvl-15" target="BrGtxLfJYtqCHc87NHvl-18">
          <mxGeometry relative="1" as="geometry" />
        </mxCell>
        <mxCell id="BrGtxLfJYtqCHc87NHvl-15" value="生成索引文件 .fdx .fdt .tvd .tvx" style="rounded=1;whiteSpace=wrap;html=1;fontSize=12;glass=0;strokeWidth=1;shadow=0;fillColor=#d5e8d4;strokeColor=#82b366;" vertex="1" parent="WIyWlLk6GJQsqaUBKTNV-1">
          <mxGeometry x="389" y="291" width="120" height="40" as="geometry" />
        </mxCell>
        <mxCell id="BrGtxLfJYtqCHc87NHvl-21" value="" style="edgeStyle=orthogonalEdgeStyle;rounded=0;orthogonalLoop=1;jettySize=auto;html=1;" edge="1" parent="WIyWlLk6GJQsqaUBKTNV-1" source="BrGtxLfJYtqCHc87NHvl-18" target="BrGtxLfJYtqCHc87NHvl-19">
          <mxGeometry relative="1" as="geometry" />
        </mxCell>
        <mxCell id="BrGtxLfJYtqCHc87NHvl-18" value="..." style="rounded=1;whiteSpace=wrap;html=1;fontSize=12;glass=0;strokeWidth=1;shadow=0;" vertex="1" parent="WIyWlLk6GJQsqaUBKTNV-1">
          <mxGeometry x="389" y="383" width="120" height="40" as="geometry" />
        </mxCell>
        <mxCell id="BrGtxLfJYtqCHc87NHvl-19" value="end" style="rounded=1;whiteSpace=wrap;html=1;fontSize=12;glass=0;strokeWidth=1;shadow=0;" vertex="1" parent="WIyWlLk6GJQsqaUBKTNV-1">
          <mxGeometry x="389" y="475" width="120" height="40" as="geometry" />
        </mxCell>
        <mxCell id="BrGtxLfJYtqCHc87NHvl-26" value="" style="edgeStyle=orthogonalEdgeStyle;rounded=0;orthogonalLoop=1;jettySize=auto;html=1;" edge="1" parent="WIyWlLk6GJQsqaUBKTNV-1" source="BrGtxLfJYtqCHc87NHvl-23" target="BrGtxLfJYtqCHc87NHvl-25">
          <mxGeometry relative="1" as="geometry" />
        </mxCell>
        <mxCell id="BrGtxLfJYtqCHc87NHvl-23" value="fdt 文件流" style="rounded=1;whiteSpace=wrap;html=1;fontSize=12;glass=0;strokeWidth=1;shadow=0;" vertex="1" parent="WIyWlLk6GJQsqaUBKTNV-1">
          <mxGeometry x="635" y="153" width="120" height="40" as="geometry" />
        </mxCell>
        <mxCell id="BrGtxLfJYtqCHc87NHvl-24" value="" style="endArrow=none;dashed=1;html=1;dashPattern=1 3;strokeWidth=2;rounded=0;" edge="1" parent="WIyWlLk6GJQsqaUBKTNV-1">
          <mxGeometry width="50" height="50" relative="1" as="geometry">
            <mxPoint x="529" y="290" as="sourcePoint" />
            <mxPoint x="613" y="182" as="targetPoint" />
          </mxGeometry>
        </mxCell>
        <mxCell id="BrGtxLfJYtqCHc87NHvl-29" value="" style="edgeStyle=orthogonalEdgeStyle;rounded=0;orthogonalLoop=1;jettySize=auto;html=1;" edge="1" parent="WIyWlLk6GJQsqaUBKTNV-1" source="BrGtxLfJYtqCHc87NHvl-25" target="BrGtxLfJYtqCHc87NHvl-27">
          <mxGeometry relative="1" as="geometry" />
        </mxCell>
        <mxCell id="BrGtxLfJYtqCHc87NHvl-25" value="使用压缩算法压缩 block 数据" style="rounded=1;whiteSpace=wrap;html=1;fontSize=12;glass=0;strokeWidth=1;shadow=0;fillColor=#d5e8d4;strokeColor=#82b366;" vertex="1" parent="WIyWlLk6GJQsqaUBKTNV-1">
          <mxGeometry x="635" y="245" width="120" height="40" as="geometry" />
        </mxCell>
        <mxCell id="BrGtxLfJYtqCHc87NHvl-30" value="" style="edgeStyle=orthogonalEdgeStyle;rounded=0;orthogonalLoop=1;jettySize=auto;html=1;" edge="1" parent="WIyWlLk6GJQsqaUBKTNV-1" source="BrGtxLfJYtqCHc87NHvl-27" target="BrGtxLfJYtqCHc87NHvl-28">
          <mxGeometry relative="1" as="geometry" />
        </mxCell>
        <mxCell id="BrGtxLfJYtqCHc87NHvl-27" value="写文件流" style="rounded=1;whiteSpace=wrap;html=1;fontSize=12;glass=0;strokeWidth=1;shadow=0;" vertex="1" parent="WIyWlLk6GJQsqaUBKTNV-1">
          <mxGeometry x="635" y="337" width="120" height="40" as="geometry" />
        </mxCell>
        <mxCell id="BrGtxLfJYtqCHc87NHvl-28" value="end" style="rounded=1;whiteSpace=wrap;html=1;fontSize=12;glass=0;strokeWidth=1;shadow=0;" vertex="1" parent="WIyWlLk6GJQsqaUBKTNV-1">
          <mxGeometry x="635" y="429" width="120" height="40" as="geometry" />
        </mxCell>
        <mxCell id="BrGtxLfJYtqCHc87NHvl-31" value="" style="endArrow=none;dashed=1;html=1;dashPattern=1 3;strokeWidth=2;rounded=0;" edge="1" parent="WIyWlLk6GJQsqaUBKTNV-1">
          <mxGeometry width="50" height="50" relative="1" as="geometry">
            <mxPoint x="534" y="320" as="sourcePoint" />
            <mxPoint x="613" y="416" as="targetPoint" />
          </mxGeometry>
        </mxCell>
        <mxCell id="BrGtxLfJYtqCHc87NHvl-49" value="" style="edgeStyle=orthogonalEdgeStyle;rounded=0;orthogonalLoop=1;jettySize=auto;html=1;" edge="1" parent="WIyWlLk6GJQsqaUBKTNV-1" source="BrGtxLfJYtqCHc87NHvl-32" target="BrGtxLfJYtqCHc87NHvl-33">
          <mxGeometry relative="1" as="geometry" />
        </mxCell>
        <mxCell id="BrGtxLfJYtqCHc87NHvl-32" value="search 数据" style="rounded=1;whiteSpace=wrap;html=1;fontSize=12;glass=0;strokeWidth=1;shadow=0;" vertex="1" parent="WIyWlLk6GJQsqaUBKTNV-1">
          <mxGeometry x="156.5" y="701" width="120" height="40" as="geometry" />
        </mxCell>
        <mxCell id="BrGtxLfJYtqCHc87NHvl-50" value="" style="edgeStyle=orthogonalEdgeStyle;rounded=0;orthogonalLoop=1;jettySize=auto;html=1;" edge="1" parent="WIyWlLk6GJQsqaUBKTNV-1" source="BrGtxLfJYtqCHc87NHvl-33" target="BrGtxLfJYtqCHc87NHvl-34">
          <mxGeometry relative="1" as="geometry" />
        </mxCell>
        <mxCell id="BrGtxLfJYtqCHc87NHvl-33" value="query 数据（倒排索引或者 docValues）" style="rounded=1;whiteSpace=wrap;html=1;fontSize=12;glass=0;strokeWidth=1;shadow=0;" vertex="1" parent="WIyWlLk6GJQsqaUBKTNV-1">
          <mxGeometry x="156.5" y="788" width="120" height="40" as="geometry" />
        </mxCell>
        <mxCell id="BrGtxLfJYtqCHc87NHvl-51" value="" style="edgeStyle=orthogonalEdgeStyle;rounded=0;orthogonalLoop=1;jettySize=auto;html=1;" edge="1" parent="WIyWlLk6GJQsqaUBKTNV-1" source="BrGtxLfJYtqCHc87NHvl-34" target="BrGtxLfJYtqCHc87NHvl-35">
          <mxGeometry relative="1" as="geometry" />
        </mxCell>
        <mxCell id="BrGtxLfJYtqCHc87NHvl-34" value="fetch 数据" style="rounded=1;whiteSpace=wrap;html=1;fontSize=12;glass=0;strokeWidth=1;shadow=0;fillColor=#d5e8d4;strokeColor=#82b366;" vertex="1" parent="WIyWlLk6GJQsqaUBKTNV-1">
          <mxGeometry x="156.5" y="875" width="120" height="40" as="geometry" />
        </mxCell>
        <mxCell id="BrGtxLfJYtqCHc87NHvl-52" value="" style="edgeStyle=orthogonalEdgeStyle;rounded=0;orthogonalLoop=1;jettySize=auto;html=1;" edge="1" parent="WIyWlLk6GJQsqaUBKTNV-1" source="BrGtxLfJYtqCHc87NHvl-35" target="BrGtxLfJYtqCHc87NHvl-36">
          <mxGeometry relative="1" as="geometry" />
        </mxCell>
        <mxCell id="BrGtxLfJYtqCHc87NHvl-35" value="返回结果" style="rounded=1;whiteSpace=wrap;html=1;fontSize=12;glass=0;strokeWidth=1;shadow=0;" vertex="1" parent="WIyWlLk6GJQsqaUBKTNV-1">
          <mxGeometry x="156.5" y="962" width="120" height="40" as="geometry" />
        </mxCell>
        <mxCell id="BrGtxLfJYtqCHc87NHvl-36" value="end" style="rounded=1;whiteSpace=wrap;html=1;fontSize=12;glass=0;strokeWidth=1;shadow=0;" vertex="1" parent="WIyWlLk6GJQsqaUBKTNV-1">
          <mxGeometry x="156.5" y="1049" width="120" height="40" as="geometry" />
        </mxCell>
        <mxCell id="BrGtxLfJYtqCHc87NHvl-40" value="" style="edgeStyle=orthogonalEdgeStyle;rounded=0;orthogonalLoop=1;jettySize=auto;html=1;" edge="1" parent="WIyWlLk6GJQsqaUBKTNV-1" source="BrGtxLfJYtqCHc87NHvl-37" target="BrGtxLfJYtqCHc87NHvl-38">
          <mxGeometry relative="1" as="geometry" />
        </mxCell>
        <mxCell id="BrGtxLfJYtqCHc87NHvl-37" value="获取单个文档" style="rounded=1;whiteSpace=wrap;html=1;fontSize=12;glass=0;strokeWidth=1;shadow=0;" vertex="1" parent="WIyWlLk6GJQsqaUBKTNV-1">
          <mxGeometry x="448.5" y="701" width="120" height="40" as="geometry" />
        </mxCell>
        <mxCell id="BrGtxLfJYtqCHc87NHvl-42" value="" style="edgeStyle=orthogonalEdgeStyle;rounded=0;orthogonalLoop=1;jettySize=auto;html=1;" edge="1" parent="WIyWlLk6GJQsqaUBKTNV-1" source="BrGtxLfJYtqCHc87NHvl-38" target="BrGtxLfJYtqCHc87NHvl-41">
          <mxGeometry relative="1" as="geometry" />
        </mxCell>
        <mxCell id="BrGtxLfJYtqCHc87NHvl-38" value="fdx 获取文档 position" style="rounded=1;whiteSpace=wrap;html=1;fontSize=12;glass=0;strokeWidth=1;shadow=0;" vertex="1" parent="WIyWlLk6GJQsqaUBKTNV-1">
          <mxGeometry x="448.5" y="788" width="120" height="40" as="geometry" />
        </mxCell>
        <mxCell id="BrGtxLfJYtqCHc87NHvl-45" value="" style="edgeStyle=orthogonalEdgeStyle;rounded=0;orthogonalLoop=1;jettySize=auto;html=1;" edge="1" parent="WIyWlLk6GJQsqaUBKTNV-1" source="BrGtxLfJYtqCHc87NHvl-41" target="BrGtxLfJYtqCHc87NHvl-43">
          <mxGeometry relative="1" as="geometry" />
        </mxCell>
        <mxCell id="BrGtxLfJYtqCHc87NHvl-41" value="fxt 文件流读取数据" style="rounded=1;whiteSpace=wrap;html=1;fontSize=12;glass=0;strokeWidth=1;shadow=0;" vertex="1" parent="WIyWlLk6GJQsqaUBKTNV-1">
          <mxGeometry x="448.5" y="875" width="120" height="40" as="geometry" />
        </mxCell>
        <mxCell id="BrGtxLfJYtqCHc87NHvl-46" value="" style="edgeStyle=orthogonalEdgeStyle;rounded=0;orthogonalLoop=1;jettySize=auto;html=1;" edge="1" parent="WIyWlLk6GJQsqaUBKTNV-1" source="BrGtxLfJYtqCHc87NHvl-43" target="BrGtxLfJYtqCHc87NHvl-44">
          <mxGeometry relative="1" as="geometry" />
        </mxCell>
        <mxCell id="BrGtxLfJYtqCHc87NHvl-43" value="解压还原文档流，返回" style="rounded=1;whiteSpace=wrap;html=1;fontSize=12;glass=0;strokeWidth=1;shadow=0;fillColor=#d5e8d4;strokeColor=#82b366;" vertex="1" parent="WIyWlLk6GJQsqaUBKTNV-1">
          <mxGeometry x="448.5" y="962" width="120" height="40" as="geometry" />
        </mxCell>
        <mxCell id="BrGtxLfJYtqCHc87NHvl-44" value="end" style="rounded=1;whiteSpace=wrap;html=1;fontSize=12;glass=0;strokeWidth=1;shadow=0;" vertex="1" parent="WIyWlLk6GJQsqaUBKTNV-1">
          <mxGeometry x="448.5" y="1049" width="120" height="40" as="geometry" />
        </mxCell>
        <mxCell id="BrGtxLfJYtqCHc87NHvl-47" value="" style="endArrow=none;dashed=1;html=1;dashPattern=1 3;strokeWidth=2;rounded=0;" edge="1" parent="WIyWlLk6GJQsqaUBKTNV-1">
          <mxGeometry width="50" height="50" relative="1" as="geometry">
            <mxPoint x="293.5" y="881" as="sourcePoint" />
            <mxPoint x="426.5" y="743" as="targetPoint" />
          </mxGeometry>
        </mxCell>
        <mxCell id="BrGtxLfJYtqCHc87NHvl-48" value="" style="endArrow=none;dashed=1;html=1;dashPattern=1 3;strokeWidth=2;rounded=0;" edge="1" parent="WIyWlLk6GJQsqaUBKTNV-1">
          <mxGeometry width="50" height="50" relative="1" as="geometry">
            <mxPoint x="296.5" y="917" as="sourcePoint" />
            <mxPoint x="429.5" y="1049" as="targetPoint" />
          </mxGeometry>
        </mxCell>
        <mxCell id="BrGtxLfJYtqCHc87NHvl-53" value="end" style="rounded=1;whiteSpace=wrap;html=1;fontSize=12;glass=0;strokeWidth=1;shadow=0;" vertex="1" parent="WIyWlLk6GJQsqaUBKTNV-1">
          <mxGeometry x="146" y="475" width="120" height="40" as="geometry" />
        </mxCell>
        <mxCell id="BrGtxLfJYtqCHc87NHvl-59" value="Elasticsearch" style="text;html=1;align=center;verticalAlign=middle;whiteSpace=wrap;rounded=0;" vertex="1" parent="WIyWlLk6GJQsqaUBKTNV-1">
          <mxGeometry x="183.5" y="656" width="60" height="30" as="geometry" />
        </mxCell>
        <mxCell id="BrGtxLfJYtqCHc87NHvl-61" value="Lucene" style="text;html=1;align=center;verticalAlign=middle;whiteSpace=wrap;rounded=0;" vertex="1" parent="WIyWlLk6GJQsqaUBKTNV-1">
          <mxGeometry x="478.5" y="656" width="60" height="30" as="geometry" />
        </mxCell>
        <mxCell id="BrGtxLfJYtqCHc87NHvl-63" value="Elasticsearch" style="text;html=1;align=center;verticalAlign=middle;whiteSpace=wrap;rounded=0;" vertex="1" parent="WIyWlLk6GJQsqaUBKTNV-1">
          <mxGeometry x="176" y="67" width="60" height="30" as="geometry" />
        </mxCell>
        <mxCell id="BrGtxLfJYtqCHc87NHvl-65" value="Lucene" style="text;html=1;align=center;verticalAlign=middle;whiteSpace=wrap;rounded=0;" vertex="1" parent="WIyWlLk6GJQsqaUBKTNV-1">
          <mxGeometry x="527" y="67" width="60" height="30" as="geometry" />
        </mxCell>
      </root>
    </mxGraphModel>
  </diagram>
</mxfile>
